<?xml version="1.0" standalone="no"?>
<!DOCTYPE svg PUBLIC "-//W3C//DTD SVG 20010904//EN"
 "http://www.w3.org/TR/2001/REC-SVG-20010904/DTD/svg10.dtd">
<svg version="1.0" xmlns="http://www.w3.org/2000/svg"
 width="100.000000pt" height="100.000000pt" viewBox="0 0 100.000000 100.000000"
 preserveAspectRatio="xMidYMid meet">

<g transform="translate(0.000000,100.000000) scale(0.100000,-0.100000)"
fill="#000000" stroke="none">
<path d="M0 500 l0 -500 500 0 500 0 0 500 0 500 -500 0 -500 0 0 -500z m522
404 c3 -2 5 -12 3 -22 -14 -70 -16 -75 -28 -63 -6 6 -19 11 -28 11 -23 0 -35
20 -19 30 7 4 10 15 6 25 -9 25 2 36 32 29 15 -4 30 -8 34 -10z m58 -24 c0 -5
-2 -10 -4 -10 -3 0 -8 5 -11 10 -3 6 -1 10 4 10 6 0 11 -4 11 -10z m7 -52 c-3
-7 -5 -2 -5 12 0 14 2 19 5 13 2 -7 2 -19 0 -25z m-64 -64 c5 -27 -19 -47 -32
-26 -4 8 -11 8 -21 1 -11 -8 -12 -12 -2 -16 15 -6 16 -23 1 -23 -15 0 -37 24
-48 53 -9 24 -9 24 35 19 29 -3 44 -1 44 7 0 22 18 11 23 -15z m-13 -103 c0
-5 -9 -7 -20 -4 -11 3 -20 7 -20 9 0 2 9 4 20 4 11 0 20 -4 20 -9z m-92 -68
c26 -16 60 -34 75 -41 27 -11 29 -10 42 20 l14 33 1 -37 c0 -20 4 -40 10 -43
17 -10 60 -165 63 -224 3 -99 -3 -251 -11 -251 -4 0 -21 60 -39 133 -37 158
-96 291 -171 389 -29 37 -52 71 -52 75 0 4 5 1 10 -9 6 -9 31 -29 58 -45z"/>
</g>
</svg>
